<mxfile host="app.diagrams.net" modified="2022-02-10T01:30:45.199Z" agent="5.0 (X11; Linux x86_64) AppleWebKit/537.36 (KHTML, like Gecko) Chrome/98.0.4758.80 Safari/537.36" etag="y0hB-akilU9_DjYvR59I" version="16.5.3" type="github">
  <diagram id="C5RBs43oDa-KdzZeNtuy" name="Page-1">
    <mxGraphModel dx="1960" dy="1651" grid="1" gridSize="10" guides="1" tooltips="1" connect="1" arrows="1" fold="1" page="0" pageScale="1" pageWidth="827" pageHeight="1169" math="0" shadow="0">
      <root>
        <mxCell id="WIyWlLk6GJQsqaUBKTNV-0" />
        <mxCell id="WIyWlLk6GJQsqaUBKTNV-1" parent="WIyWlLk6GJQsqaUBKTNV-0" />
        <mxCell id="ZLJSvew3tUVxWvLUYORm-17" value="No" style="edgeStyle=orthogonalEdgeStyle;shape=connector;rounded=0;orthogonalLoop=1;jettySize=auto;html=1;shadow=0;labelBackgroundColor=none;fontFamily=Helvetica;fontSize=12;fontColor=default;endArrow=block;endFill=0;endSize=8;strokeColor=default;strokeWidth=1;" edge="1" parent="WIyWlLk6GJQsqaUBKTNV-1" source="WIyWlLk6GJQsqaUBKTNV-6" target="ZLJSvew3tUVxWvLUYORm-16">
          <mxGeometry x="-0.0303" y="-20" relative="1" as="geometry">
            <mxPoint as="offset" />
          </mxGeometry>
        </mxCell>
        <mxCell id="ZLJSvew3tUVxWvLUYORm-36" value="" style="edgeStyle=orthogonalEdgeStyle;shape=connector;rounded=0;orthogonalLoop=1;jettySize=auto;html=1;shadow=0;labelBackgroundColor=none;fontFamily=Helvetica;fontSize=12;fontColor=default;endArrow=block;endFill=0;endSize=8;strokeColor=default;strokeWidth=1;" edge="1" parent="WIyWlLk6GJQsqaUBKTNV-1" source="WIyWlLk6GJQsqaUBKTNV-6" target="ZLJSvew3tUVxWvLUYORm-35">
          <mxGeometry relative="1" as="geometry" />
        </mxCell>
        <mxCell id="ZLJSvew3tUVxWvLUYORm-96" value="" style="edgeStyle=orthogonalEdgeStyle;shape=connector;rounded=0;orthogonalLoop=1;jettySize=auto;html=1;shadow=0;labelBackgroundColor=none;fontFamily=Helvetica;fontSize=14;fontColor=default;endArrow=block;endFill=0;endSize=8;strokeColor=default;strokeWidth=1;" edge="1" parent="WIyWlLk6GJQsqaUBKTNV-1" source="WIyWlLk6GJQsqaUBKTNV-6" target="ZLJSvew3tUVxWvLUYORm-95">
          <mxGeometry relative="1" as="geometry" />
        </mxCell>
        <mxCell id="ZLJSvew3tUVxWvLUYORm-97" value="Yes" style="edgeLabel;html=1;align=center;verticalAlign=middle;resizable=0;points=[];fontSize=12;fontFamily=Helvetica;fontColor=default;" vertex="1" connectable="0" parent="ZLJSvew3tUVxWvLUYORm-96">
          <mxGeometry x="0.3161" y="2" relative="1" as="geometry">
            <mxPoint x="-6" y="-18" as="offset" />
          </mxGeometry>
        </mxCell>
        <mxCell id="WIyWlLk6GJQsqaUBKTNV-6" value="&lt;font style=&quot;font-size: 12px&quot;&gt;&amp;nbsp;User inputs&lt;br&gt;Infix &lt;br&gt;Expression?&lt;/font&gt;" style="rhombus;whiteSpace=wrap;html=1;shadow=0;fontFamily=Helvetica;fontSize=12;align=center;strokeWidth=1;spacing=6;spacingTop=-4;" parent="WIyWlLk6GJQsqaUBKTNV-1" vertex="1">
          <mxGeometry x="170" y="150" width="125" height="100" as="geometry" />
        </mxCell>
        <mxCell id="ZLJSvew3tUVxWvLUYORm-5" style="edgeStyle=orthogonalEdgeStyle;shape=connector;rounded=0;orthogonalLoop=1;jettySize=auto;html=1;entryX=0.5;entryY=0;entryDx=0;entryDy=0;shadow=0;labelBackgroundColor=none;fontFamily=Helvetica;fontSize=11;fontColor=default;endArrow=block;endFill=0;endSize=8;strokeColor=default;strokeWidth=1;" edge="1" parent="WIyWlLk6GJQsqaUBKTNV-1" source="ZLJSvew3tUVxWvLUYORm-4" target="WIyWlLk6GJQsqaUBKTNV-6">
          <mxGeometry relative="1" as="geometry">
            <mxPoint x="220" y="60" as="targetPoint" />
          </mxGeometry>
        </mxCell>
        <mxCell id="ZLJSvew3tUVxWvLUYORm-4" value="Calculator on" style="rounded=1;whiteSpace=wrap;html=1;fontSize=12;glass=0;strokeWidth=1;shadow=0;" vertex="1" parent="WIyWlLk6GJQsqaUBKTNV-1">
          <mxGeometry x="172.5" y="40" width="120" height="40" as="geometry" />
        </mxCell>
        <mxCell id="ZLJSvew3tUVxWvLUYORm-100" value="" style="edgeStyle=orthogonalEdgeStyle;shape=connector;rounded=0;orthogonalLoop=1;jettySize=auto;html=1;shadow=0;labelBackgroundColor=none;fontFamily=Helvetica;fontSize=14;fontColor=default;endArrow=block;endFill=0;endSize=8;strokeColor=default;strokeWidth=1;" edge="1" parent="WIyWlLk6GJQsqaUBKTNV-1" source="ZLJSvew3tUVxWvLUYORm-14" target="ZLJSvew3tUVxWvLUYORm-99">
          <mxGeometry relative="1" as="geometry" />
        </mxCell>
        <mxCell id="ZLJSvew3tUVxWvLUYORm-14" value="Spilt as tokens" style="rounded=1;whiteSpace=wrap;html=1;shadow=0;strokeWidth=1;spacing=6;spacingTop=-4;" vertex="1" parent="WIyWlLk6GJQsqaUBKTNV-1">
          <mxGeometry x="530" y="170" width="120" height="60" as="geometry" />
        </mxCell>
        <mxCell id="ZLJSvew3tUVxWvLUYORm-20" style="shape=connector;rounded=0;orthogonalLoop=1;jettySize=auto;html=1;entryX=0;entryY=0.5;entryDx=0;entryDy=0;shadow=0;labelBackgroundColor=none;fontFamily=Helvetica;fontSize=12;fontColor=default;endArrow=block;endFill=0;endSize=8;strokeColor=default;strokeWidth=1;exitX=0.5;exitY=0;exitDx=0;exitDy=0;edgeStyle=orthogonalEdgeStyle;" edge="1" parent="WIyWlLk6GJQsqaUBKTNV-1" source="ZLJSvew3tUVxWvLUYORm-16" target="ZLJSvew3tUVxWvLUYORm-4">
          <mxGeometry relative="1" as="geometry" />
        </mxCell>
        <mxCell id="ZLJSvew3tUVxWvLUYORm-16" value="Ask for input again" style="rounded=1;whiteSpace=wrap;html=1;shadow=0;strokeWidth=1;spacing=6;spacingTop=-4;" vertex="1" parent="WIyWlLk6GJQsqaUBKTNV-1">
          <mxGeometry x="-32.5" y="170" width="120" height="60" as="geometry" />
        </mxCell>
        <mxCell id="ZLJSvew3tUVxWvLUYORm-54" style="edgeStyle=orthogonalEdgeStyle;shape=connector;rounded=0;orthogonalLoop=1;jettySize=auto;html=1;exitX=0.5;exitY=0;exitDx=0;exitDy=0;shadow=0;labelBackgroundColor=none;fontFamily=Helvetica;fontSize=12;fontColor=default;endArrow=block;endFill=0;endSize=8;strokeColor=default;strokeWidth=1;" edge="1" parent="WIyWlLk6GJQsqaUBKTNV-1" source="ZLJSvew3tUVxWvLUYORm-23" target="ZLJSvew3tUVxWvLUYORm-43">
          <mxGeometry relative="1" as="geometry" />
        </mxCell>
        <mxCell id="ZLJSvew3tUVxWvLUYORm-23" value="&lt;span&gt;For-each&amp;nbsp;token in infix tokens&lt;/span&gt;" style="rounded=1;whiteSpace=wrap;html=1;shadow=0;strokeWidth=1;spacing=6;spacingTop=-4;" vertex="1" parent="WIyWlLk6GJQsqaUBKTNV-1">
          <mxGeometry x="890" y="170" width="120" height="60" as="geometry" />
        </mxCell>
        <mxCell id="ZLJSvew3tUVxWvLUYORm-33" value="" style="edgeStyle=orthogonalEdgeStyle;shape=connector;rounded=0;orthogonalLoop=1;jettySize=auto;html=1;shadow=0;labelBackgroundColor=none;fontFamily=Helvetica;fontSize=12;fontColor=default;endArrow=block;endFill=0;endSize=8;strokeColor=default;strokeWidth=1;entryX=0.5;entryY=1;entryDx=0;entryDy=0;" edge="1" parent="WIyWlLk6GJQsqaUBKTNV-1" source="ZLJSvew3tUVxWvLUYORm-43" target="ZLJSvew3tUVxWvLUYORm-85">
          <mxGeometry relative="1" as="geometry">
            <mxPoint x="950" y="-90" as="targetPoint" />
          </mxGeometry>
        </mxCell>
        <mxCell id="ZLJSvew3tUVxWvLUYORm-34" value="Yes" style="edgeLabel;html=1;align=center;verticalAlign=middle;resizable=0;points=[];fontSize=12;fontFamily=Helvetica;fontColor=default;" vertex="1" connectable="0" parent="ZLJSvew3tUVxWvLUYORm-33">
          <mxGeometry x="-0.1877" y="-1" relative="1" as="geometry">
            <mxPoint x="17" y="-5" as="offset" />
          </mxGeometry>
        </mxCell>
        <mxCell id="ZLJSvew3tUVxWvLUYORm-107" value="Yes" style="edgeStyle=orthogonalEdgeStyle;shape=connector;rounded=0;orthogonalLoop=1;jettySize=auto;html=1;shadow=0;labelBackgroundColor=none;fontFamily=Helvetica;fontSize=12;fontColor=default;endArrow=block;endFill=0;endSize=8;strokeColor=default;strokeWidth=1;" edge="1" parent="WIyWlLk6GJQsqaUBKTNV-1" source="ZLJSvew3tUVxWvLUYORm-27" target="ZLJSvew3tUVxWvLUYORm-106">
          <mxGeometry x="-0.2" y="-20" relative="1" as="geometry">
            <mxPoint as="offset" />
          </mxGeometry>
        </mxCell>
        <mxCell id="ZLJSvew3tUVxWvLUYORm-116" style="edgeStyle=none;shape=connector;rounded=0;orthogonalLoop=1;jettySize=auto;html=1;entryX=0.5;entryY=0;entryDx=0;entryDy=0;shadow=0;labelBackgroundColor=none;fontFamily=Helvetica;fontSize=12;fontColor=default;endArrow=block;endFill=0;endSize=8;strokeColor=default;strokeWidth=1;" edge="1" parent="WIyWlLk6GJQsqaUBKTNV-1" source="ZLJSvew3tUVxWvLUYORm-27" target="ZLJSvew3tUVxWvLUYORm-115">
          <mxGeometry relative="1" as="geometry" />
        </mxCell>
        <mxCell id="ZLJSvew3tUVxWvLUYORm-27" value="Is token Math Operator?" style="rhombus;whiteSpace=wrap;html=1;rounded=1;shadow=0;strokeWidth=1;spacing=6;spacingTop=-4;" vertex="1" parent="WIyWlLk6GJQsqaUBKTNV-1">
          <mxGeometry x="1540" y="-20" width="120" height="120" as="geometry" />
        </mxCell>
        <mxCell id="ZLJSvew3tUVxWvLUYORm-48" value="Yes" style="edgeStyle=orthogonalEdgeStyle;shape=connector;rounded=0;orthogonalLoop=1;jettySize=auto;html=1;shadow=0;labelBackgroundColor=none;fontFamily=Helvetica;fontSize=12;fontColor=default;endArrow=block;endFill=0;endSize=8;strokeColor=default;strokeWidth=1;entryX=1;entryY=0.5;entryDx=0;entryDy=0;exitX=0;exitY=0.5;exitDx=0;exitDy=0;" edge="1" parent="WIyWlLk6GJQsqaUBKTNV-1" source="ZLJSvew3tUVxWvLUYORm-29" target="ZLJSvew3tUVxWvLUYORm-58">
          <mxGeometry x="-0.1429" y="20" relative="1" as="geometry">
            <mxPoint x="1362" y="10" as="targetPoint" />
            <mxPoint as="offset" />
          </mxGeometry>
        </mxCell>
        <mxCell id="ZLJSvew3tUVxWvLUYORm-67" value="No" style="edgeStyle=orthogonalEdgeStyle;shape=connector;rounded=0;orthogonalLoop=1;jettySize=auto;html=1;shadow=0;labelBackgroundColor=none;fontFamily=Helvetica;fontSize=12;fontColor=default;endArrow=block;endFill=0;endSize=8;strokeColor=default;strokeWidth=1;" edge="1" parent="WIyWlLk6GJQsqaUBKTNV-1" source="ZLJSvew3tUVxWvLUYORm-29" target="ZLJSvew3tUVxWvLUYORm-27">
          <mxGeometry x="-0.1111" y="20" relative="1" as="geometry">
            <mxPoint as="offset" />
          </mxGeometry>
        </mxCell>
        <mxCell id="ZLJSvew3tUVxWvLUYORm-29" value="is token&lt;br&gt;Parenthesis?" style="rhombus;whiteSpace=wrap;html=1;rounded=1;shadow=0;strokeWidth=1;spacing=6;spacingTop=-4;direction=south;" vertex="1" parent="WIyWlLk6GJQsqaUBKTNV-1">
          <mxGeometry x="1190" y="-20" width="120" height="120" as="geometry" />
        </mxCell>
        <mxCell id="ZLJSvew3tUVxWvLUYORm-37" style="edgeStyle=orthogonalEdgeStyle;shape=connector;rounded=0;orthogonalLoop=1;jettySize=auto;html=1;entryX=0.5;entryY=1;entryDx=0;entryDy=0;shadow=0;labelBackgroundColor=none;fontFamily=Helvetica;fontSize=12;fontColor=default;endArrow=block;endFill=0;endSize=8;strokeColor=default;strokeWidth=1;" edge="1" parent="WIyWlLk6GJQsqaUBKTNV-1" source="ZLJSvew3tUVxWvLUYORm-35" target="ZLJSvew3tUVxWvLUYORm-16">
          <mxGeometry relative="1" as="geometry" />
        </mxCell>
        <mxCell id="ZLJSvew3tUVxWvLUYORm-38" value="No" style="edgeLabel;html=1;align=center;verticalAlign=middle;resizable=0;points=[];fontSize=12;fontFamily=Helvetica;fontColor=default;" vertex="1" connectable="0" parent="ZLJSvew3tUVxWvLUYORm-37">
          <mxGeometry x="-0.2412" y="-2" relative="1" as="geometry">
            <mxPoint x="63" y="-18" as="offset" />
          </mxGeometry>
        </mxCell>
        <mxCell id="ZLJSvew3tUVxWvLUYORm-40" value="" style="edgeStyle=orthogonalEdgeStyle;shape=connector;rounded=0;orthogonalLoop=1;jettySize=auto;html=1;shadow=0;labelBackgroundColor=none;fontFamily=Helvetica;fontSize=12;fontColor=default;endArrow=block;endFill=0;endSize=8;strokeColor=default;strokeWidth=1;" edge="1" parent="WIyWlLk6GJQsqaUBKTNV-1" source="ZLJSvew3tUVxWvLUYORm-35" target="ZLJSvew3tUVxWvLUYORm-39">
          <mxGeometry relative="1" as="geometry" />
        </mxCell>
        <mxCell id="ZLJSvew3tUVxWvLUYORm-41" value="Yes" style="edgeLabel;html=1;align=center;verticalAlign=middle;resizable=0;points=[];fontSize=12;fontFamily=Helvetica;fontColor=default;" vertex="1" connectable="0" parent="ZLJSvew3tUVxWvLUYORm-40">
          <mxGeometry x="0.2956" y="-1" relative="1" as="geometry">
            <mxPoint x="-13" y="-21" as="offset" />
          </mxGeometry>
        </mxCell>
        <mxCell id="ZLJSvew3tUVxWvLUYORm-35" value="User inputs &lt;br&gt;an option?" style="rhombus;whiteSpace=wrap;html=1;shadow=0;strokeWidth=1;spacing=6;spacingTop=-4;" vertex="1" parent="WIyWlLk6GJQsqaUBKTNV-1">
          <mxGeometry x="182.5" y="330" width="100" height="100" as="geometry" />
        </mxCell>
        <mxCell id="ZLJSvew3tUVxWvLUYORm-39" value="Perform option" style="rounded=1;whiteSpace=wrap;html=1;shadow=0;strokeWidth=1;spacing=6;spacingTop=-4;" vertex="1" parent="WIyWlLk6GJQsqaUBKTNV-1">
          <mxGeometry x="376" y="350" width="120" height="60" as="geometry" />
        </mxCell>
        <mxCell id="ZLJSvew3tUVxWvLUYORm-65" style="edgeStyle=orthogonalEdgeStyle;shape=connector;rounded=0;orthogonalLoop=1;jettySize=auto;html=1;shadow=0;labelBackgroundColor=none;fontFamily=Helvetica;fontSize=12;fontColor=default;endArrow=block;endFill=0;endSize=8;strokeColor=default;strokeWidth=1;" edge="1" parent="WIyWlLk6GJQsqaUBKTNV-1" source="ZLJSvew3tUVxWvLUYORm-43" target="ZLJSvew3tUVxWvLUYORm-29">
          <mxGeometry relative="1" as="geometry">
            <mxPoint x="1150" y="40" as="targetPoint" />
          </mxGeometry>
        </mxCell>
        <mxCell id="ZLJSvew3tUVxWvLUYORm-66" value="No" style="edgeLabel;html=1;align=center;verticalAlign=middle;resizable=0;points=[];fontSize=12;fontFamily=Helvetica;fontColor=default;" vertex="1" connectable="0" parent="ZLJSvew3tUVxWvLUYORm-65">
          <mxGeometry x="0.1029" y="2" relative="1" as="geometry">
            <mxPoint y="-18" as="offset" />
          </mxGeometry>
        </mxCell>
        <mxCell id="ZLJSvew3tUVxWvLUYORm-43" value="is token Number?" style="rhombus;whiteSpace=wrap;html=1;rounded=1;shadow=0;strokeWidth=1;spacing=6;spacingTop=-4;direction=south;" vertex="1" parent="WIyWlLk6GJQsqaUBKTNV-1">
          <mxGeometry x="890" y="-20" width="120" height="120" as="geometry" />
        </mxCell>
        <mxCell id="ZLJSvew3tUVxWvLUYORm-63" style="edgeStyle=orthogonalEdgeStyle;shape=connector;rounded=0;orthogonalLoop=1;jettySize=auto;html=1;shadow=0;labelBackgroundColor=none;fontFamily=Helvetica;fontSize=12;fontColor=default;endArrow=block;endFill=0;endSize=8;strokeColor=default;strokeWidth=1;" edge="1" parent="WIyWlLk6GJQsqaUBKTNV-1" source="ZLJSvew3tUVxWvLUYORm-58" target="ZLJSvew3tUVxWvLUYORm-62">
          <mxGeometry relative="1" as="geometry" />
        </mxCell>
        <mxCell id="ZLJSvew3tUVxWvLUYORm-64" value="No" style="edgeLabel;html=1;align=center;verticalAlign=middle;resizable=0;points=[];fontSize=12;fontFamily=Helvetica;fontColor=default;" vertex="1" connectable="0" parent="ZLJSvew3tUVxWvLUYORm-63">
          <mxGeometry x="-0.2243" y="2" relative="1" as="geometry">
            <mxPoint x="-18" y="-13" as="offset" />
          </mxGeometry>
        </mxCell>
        <mxCell id="ZLJSvew3tUVxWvLUYORm-72" value="" style="edgeStyle=orthogonalEdgeStyle;shape=connector;rounded=0;orthogonalLoop=1;jettySize=auto;html=1;shadow=0;labelBackgroundColor=none;fontFamily=Helvetica;fontSize=12;fontColor=default;endArrow=block;endFill=0;endSize=8;strokeColor=default;strokeWidth=1;" edge="1" parent="WIyWlLk6GJQsqaUBKTNV-1" source="ZLJSvew3tUVxWvLUYORm-58" target="ZLJSvew3tUVxWvLUYORm-71">
          <mxGeometry relative="1" as="geometry" />
        </mxCell>
        <mxCell id="ZLJSvew3tUVxWvLUYORm-73" value="Yes" style="edgeLabel;html=1;align=center;verticalAlign=middle;resizable=0;points=[];fontSize=12;fontFamily=Helvetica;fontColor=default;" vertex="1" connectable="0" parent="ZLJSvew3tUVxWvLUYORm-72">
          <mxGeometry x="-0.1163" y="2" relative="1" as="geometry">
            <mxPoint y="-22" as="offset" />
          </mxGeometry>
        </mxCell>
        <mxCell id="ZLJSvew3tUVxWvLUYORm-58" value="is&lt;br&gt;Parenthesis &lt;br&gt;open?" style="rhombus;whiteSpace=wrap;html=1;rounded=1;shadow=0;strokeWidth=1;spacing=6;spacingTop=-4;direction=south;" vertex="1" parent="WIyWlLk6GJQsqaUBKTNV-1">
          <mxGeometry x="1190" y="-190" width="120" height="120" as="geometry" />
        </mxCell>
        <mxCell id="ZLJSvew3tUVxWvLUYORm-75" value="" style="edgeStyle=orthogonalEdgeStyle;shape=connector;rounded=0;orthogonalLoop=1;jettySize=auto;html=1;shadow=0;labelBackgroundColor=none;fontFamily=Helvetica;fontSize=12;fontColor=default;endArrow=block;endFill=0;endSize=8;strokeColor=default;strokeWidth=1;" edge="1" parent="WIyWlLk6GJQsqaUBKTNV-1" source="ZLJSvew3tUVxWvLUYORm-62" target="ZLJSvew3tUVxWvLUYORm-74">
          <mxGeometry relative="1" as="geometry" />
        </mxCell>
        <mxCell id="ZLJSvew3tUVxWvLUYORm-76" value="Yes" style="edgeLabel;html=1;align=center;verticalAlign=middle;resizable=0;points=[];fontSize=12;fontFamily=Helvetica;fontColor=default;" vertex="1" connectable="0" parent="ZLJSvew3tUVxWvLUYORm-75">
          <mxGeometry x="-0.1539" y="-1" relative="1" as="geometry">
            <mxPoint y="-19" as="offset" />
          </mxGeometry>
        </mxCell>
        <mxCell id="ZLJSvew3tUVxWvLUYORm-62" value="is&lt;br&gt;Parenthesis &lt;br&gt;closed?" style="rhombus;whiteSpace=wrap;html=1;rounded=1;shadow=0;strokeWidth=1;spacing=6;spacingTop=-4;direction=south;" vertex="1" parent="WIyWlLk6GJQsqaUBKTNV-1">
          <mxGeometry x="1190" y="-350" width="120" height="120" as="geometry" />
        </mxCell>
        <mxCell id="ZLJSvew3tUVxWvLUYORm-71" value="Push parenthesis inside operator stack" style="whiteSpace=wrap;html=1;rounded=1;shadow=0;strokeWidth=1;spacing=6;spacingTop=-4;" vertex="1" parent="WIyWlLk6GJQsqaUBKTNV-1">
          <mxGeometry x="1360" y="-160" width="120" height="60" as="geometry" />
        </mxCell>
        <mxCell id="ZLJSvew3tUVxWvLUYORm-103" style="edgeStyle=orthogonalEdgeStyle;shape=connector;rounded=0;orthogonalLoop=1;jettySize=auto;html=1;shadow=0;labelBackgroundColor=none;fontFamily=Helvetica;fontSize=14;fontColor=default;endArrow=block;endFill=0;endSize=8;strokeColor=default;strokeWidth=1;" edge="1" parent="WIyWlLk6GJQsqaUBKTNV-1" source="ZLJSvew3tUVxWvLUYORm-74" target="ZLJSvew3tUVxWvLUYORm-81">
          <mxGeometry relative="1" as="geometry" />
        </mxCell>
        <mxCell id="ZLJSvew3tUVxWvLUYORm-74" value="Pop all operators until open parenthesis" style="whiteSpace=wrap;html=1;rounded=1;shadow=0;strokeWidth=1;spacing=6;spacingTop=-4;" vertex="1" parent="WIyWlLk6GJQsqaUBKTNV-1">
          <mxGeometry x="1360" y="-320" width="120" height="60" as="geometry" />
        </mxCell>
        <mxCell id="ZLJSvew3tUVxWvLUYORm-110" style="edgeStyle=none;shape=connector;rounded=0;orthogonalLoop=1;jettySize=auto;html=1;entryX=0;entryY=0.5;entryDx=0;entryDy=0;shadow=0;labelBackgroundColor=none;fontFamily=Helvetica;fontSize=12;fontColor=default;endArrow=block;endFill=0;endSize=8;strokeColor=default;strokeWidth=1;" edge="1" parent="WIyWlLk6GJQsqaUBKTNV-1" source="ZLJSvew3tUVxWvLUYORm-77" target="ZLJSvew3tUVxWvLUYORm-109">
          <mxGeometry relative="1" as="geometry" />
        </mxCell>
        <mxCell id="ZLJSvew3tUVxWvLUYORm-77" value="Math Operators" style="shape=parallelogram;perimeter=parallelogramPerimeter;whiteSpace=wrap;html=1;fixedSize=1;rounded=1;shadow=0;strokeWidth=1;spacing=6;spacingTop=-4;" vertex="1" parent="WIyWlLk6GJQsqaUBKTNV-1">
          <mxGeometry x="1790" y="-320" width="120" height="60" as="geometry" />
        </mxCell>
        <mxCell id="ZLJSvew3tUVxWvLUYORm-104" style="edgeStyle=orthogonalEdgeStyle;shape=connector;rounded=0;orthogonalLoop=1;jettySize=auto;html=1;exitX=1;exitY=0.5;exitDx=0;exitDy=0;shadow=0;labelBackgroundColor=none;fontFamily=Helvetica;fontSize=14;fontColor=default;endArrow=block;endFill=0;endSize=8;strokeColor=default;strokeWidth=1;" edge="1" parent="WIyWlLk6GJQsqaUBKTNV-1" source="ZLJSvew3tUVxWvLUYORm-81" target="ZLJSvew3tUVxWvLUYORm-77">
          <mxGeometry relative="1" as="geometry" />
        </mxCell>
        <mxCell id="ZLJSvew3tUVxWvLUYORm-81" value="Discard open parenthesis" style="whiteSpace=wrap;html=1;rounded=1;shadow=0;strokeWidth=1;spacing=6;spacingTop=-4;" vertex="1" parent="WIyWlLk6GJQsqaUBKTNV-1">
          <mxGeometry x="1640" y="-320" width="120" height="60" as="geometry" />
        </mxCell>
        <mxCell id="ZLJSvew3tUVxWvLUYORm-102" style="edgeStyle=orthogonalEdgeStyle;shape=connector;rounded=0;orthogonalLoop=1;jettySize=auto;html=1;shadow=0;labelBackgroundColor=none;fontFamily=Helvetica;fontSize=14;fontColor=default;endArrow=block;endFill=0;endSize=8;strokeColor=default;strokeWidth=1;" edge="1" parent="WIyWlLk6GJQsqaUBKTNV-1" source="ZLJSvew3tUVxWvLUYORm-85" target="ZLJSvew3tUVxWvLUYORm-90">
          <mxGeometry relative="1" as="geometry" />
        </mxCell>
        <mxCell id="ZLJSvew3tUVxWvLUYORm-85" value="Number" style="shape=parallelogram;perimeter=parallelogramPerimeter;whiteSpace=wrap;html=1;fixedSize=1;rounded=1;shadow=0;strokeWidth=1;spacing=6;spacingTop=-4;" vertex="1" parent="WIyWlLk6GJQsqaUBKTNV-1">
          <mxGeometry x="890" y="-160" width="120" height="60" as="geometry" />
        </mxCell>
        <mxCell id="ZLJSvew3tUVxWvLUYORm-90" value="&lt;font style=&quot;font-size: 14px&quot;&gt;Postfix token Queue&lt;/font&gt;" style="shape=parallelogram;perimeter=parallelogramPerimeter;whiteSpace=wrap;html=1;fixedSize=1;rounded=1;shadow=0;strokeWidth=1;spacing=6;spacingTop=-4;" vertex="1" parent="WIyWlLk6GJQsqaUBKTNV-1">
          <mxGeometry x="1050" y="-160" width="120" height="60" as="geometry" />
        </mxCell>
        <mxCell id="ZLJSvew3tUVxWvLUYORm-98" style="edgeStyle=orthogonalEdgeStyle;shape=connector;rounded=0;orthogonalLoop=1;jettySize=auto;html=1;entryX=0;entryY=0.5;entryDx=0;entryDy=0;shadow=0;labelBackgroundColor=none;fontFamily=Helvetica;fontSize=14;fontColor=default;endArrow=block;endFill=0;endSize=8;strokeColor=default;strokeWidth=1;" edge="1" parent="WIyWlLk6GJQsqaUBKTNV-1" source="ZLJSvew3tUVxWvLUYORm-95" target="ZLJSvew3tUVxWvLUYORm-14">
          <mxGeometry relative="1" as="geometry" />
        </mxCell>
        <mxCell id="ZLJSvew3tUVxWvLUYORm-95" value="Infix expression" style="shape=parallelogram;perimeter=parallelogramPerimeter;whiteSpace=wrap;html=1;fixedSize=1;shadow=0;strokeWidth=1;spacing=6;spacingTop=-4;" vertex="1" parent="WIyWlLk6GJQsqaUBKTNV-1">
          <mxGeometry x="360" y="170" width="120" height="60" as="geometry" />
        </mxCell>
        <mxCell id="ZLJSvew3tUVxWvLUYORm-101" style="edgeStyle=orthogonalEdgeStyle;shape=connector;rounded=0;orthogonalLoop=1;jettySize=auto;html=1;entryX=0;entryY=0.5;entryDx=0;entryDy=0;shadow=0;labelBackgroundColor=none;fontFamily=Helvetica;fontSize=14;fontColor=default;endArrow=block;endFill=0;endSize=8;strokeColor=default;strokeWidth=1;" edge="1" parent="WIyWlLk6GJQsqaUBKTNV-1" source="ZLJSvew3tUVxWvLUYORm-99" target="ZLJSvew3tUVxWvLUYORm-23">
          <mxGeometry relative="1" as="geometry" />
        </mxCell>
        <mxCell id="ZLJSvew3tUVxWvLUYORm-99" value="Infix tokens" style="shape=parallelogram;perimeter=parallelogramPerimeter;whiteSpace=wrap;html=1;fixedSize=1;rounded=1;shadow=0;strokeWidth=1;spacing=6;spacingTop=-4;" vertex="1" parent="WIyWlLk6GJQsqaUBKTNV-1">
          <mxGeometry x="690" y="170" width="120" height="60" as="geometry" />
        </mxCell>
        <mxCell id="ZLJSvew3tUVxWvLUYORm-112" style="edgeStyle=none;shape=connector;rounded=0;orthogonalLoop=1;jettySize=auto;html=1;shadow=0;labelBackgroundColor=none;fontFamily=Helvetica;fontSize=12;fontColor=default;endArrow=block;endFill=0;endSize=8;strokeColor=default;strokeWidth=1;" edge="1" parent="WIyWlLk6GJQsqaUBKTNV-1" source="ZLJSvew3tUVxWvLUYORm-106" target="ZLJSvew3tUVxWvLUYORm-111">
          <mxGeometry relative="1" as="geometry" />
        </mxCell>
        <mxCell id="ZLJSvew3tUVxWvLUYORm-114" value="No" style="edgeLabel;html=1;align=center;verticalAlign=middle;resizable=0;points=[];fontSize=12;fontFamily=Helvetica;fontColor=default;" vertex="1" connectable="0" parent="ZLJSvew3tUVxWvLUYORm-112">
          <mxGeometry x="0.4744" y="1" relative="1" as="geometry">
            <mxPoint x="21" y="-14" as="offset" />
          </mxGeometry>
        </mxCell>
        <mxCell id="ZLJSvew3tUVxWvLUYORm-106" value="is Precedence higher &lt;br&gt;than operator in stack?" style="rhombus;whiteSpace=wrap;html=1;rounded=1;shadow=0;strokeWidth=1;spacing=6;spacingTop=-4;" vertex="1" parent="WIyWlLk6GJQsqaUBKTNV-1">
          <mxGeometry x="1520" y="-210" width="160" height="160" as="geometry" />
        </mxCell>
        <mxCell id="ZLJSvew3tUVxWvLUYORm-109" value="&lt;span style=&quot;font-size: 14px&quot;&gt;Postfix token Queue&lt;/span&gt;" style="shape=parallelogram;perimeter=parallelogramPerimeter;whiteSpace=wrap;html=1;fixedSize=1;rounded=1;shadow=0;strokeWidth=1;spacing=6;spacingTop=-4;" vertex="1" parent="WIyWlLk6GJQsqaUBKTNV-1">
          <mxGeometry x="1920" y="-320" width="120" height="60" as="geometry" />
        </mxCell>
        <mxCell id="ZLJSvew3tUVxWvLUYORm-111" value="is Precedence lower&lt;br&gt;than operator in stack?" style="rhombus;whiteSpace=wrap;html=1;rounded=1;shadow=0;strokeWidth=1;spacing=6;spacingTop=-4;" vertex="1" parent="WIyWlLk6GJQsqaUBKTNV-1">
          <mxGeometry x="1520" y="-540" width="160" height="160" as="geometry" />
        </mxCell>
        <mxCell id="ZLJSvew3tUVxWvLUYORm-118" style="edgeStyle=none;shape=connector;rounded=0;orthogonalLoop=1;jettySize=auto;html=1;shadow=0;labelBackgroundColor=none;fontFamily=Helvetica;fontSize=12;fontColor=default;endArrow=block;endFill=0;endSize=8;strokeColor=default;strokeWidth=1;" edge="1" parent="WIyWlLk6GJQsqaUBKTNV-1" source="ZLJSvew3tUVxWvLUYORm-115" target="ZLJSvew3tUVxWvLUYORm-117">
          <mxGeometry relative="1" as="geometry" />
        </mxCell>
        <mxCell id="ZLJSvew3tUVxWvLUYORm-115" value="&lt;span&gt;Evaluate postfix tokens&amp;nbsp;&lt;/span&gt;" style="rounded=1;whiteSpace=wrap;html=1;shadow=0;strokeWidth=1;spacing=6;spacingTop=-4;" vertex="1" parent="WIyWlLk6GJQsqaUBKTNV-1">
          <mxGeometry x="1540" y="170" width="120" height="60" as="geometry" />
        </mxCell>
        <mxCell id="ZLJSvew3tUVxWvLUYORm-120" style="edgeStyle=none;shape=connector;rounded=0;orthogonalLoop=1;jettySize=auto;html=1;shadow=0;labelBackgroundColor=none;fontFamily=Helvetica;fontSize=12;fontColor=default;endArrow=block;endFill=0;endSize=8;strokeColor=default;strokeWidth=1;" edge="1" parent="WIyWlLk6GJQsqaUBKTNV-1" source="ZLJSvew3tUVxWvLUYORm-117" target="ZLJSvew3tUVxWvLUYORm-119">
          <mxGeometry relative="1" as="geometry" />
        </mxCell>
        <mxCell id="ZLJSvew3tUVxWvLUYORm-117" value="&lt;span&gt;Print expression&#39;s results&lt;/span&gt;" style="rounded=1;whiteSpace=wrap;html=1;shadow=0;strokeWidth=1;spacing=6;spacingTop=-4;" vertex="1" parent="WIyWlLk6GJQsqaUBKTNV-1">
          <mxGeometry x="1750" y="170" width="120" height="60" as="geometry" />
        </mxCell>
        <mxCell id="ZLJSvew3tUVxWvLUYORm-119" value="Wait for input" style="rounded=1;whiteSpace=wrap;html=1;shadow=0;strokeWidth=1;spacing=6;spacingTop=-4;" vertex="1" parent="WIyWlLk6GJQsqaUBKTNV-1">
          <mxGeometry x="1930" y="170" width="120" height="60" as="geometry" />
        </mxCell>
      </root>
    </mxGraphModel>
  </diagram>
</mxfile>
